<svg width="204" height="138" viewBox="0 0 204 138" fill="none" xmlns="http://www.w3.org/2000/svg">
<g clip-path="url(#clip0_129_31)">
<path d="M58.4774 126.633C56.8176 125.959 54.4106 127.1 52.3877 127.1C49.8979 127.256 47.2215 125.803 45.0948 127.1C43.1756 128.345 43.383 130.679 45.406 131.613C46.9621 132.443 49.4 132.546 51.5786 132.546C53.5497 132.546 55.3652 132.598 57.1806 132.235C60.6041 131.613 61.849 128.137 58.5293 126.633H58.4255H58.4774Z" fill="white"/>
<path d="M47.1015 109.567C41.292 110.916 46.9459 106.04 47.724 104.069C48.3983 102.616 48.0352 101.527 47.0496 100.905C46.4791 100.594 45.7529 100.438 45.1304 100.179C43.8337 99.8155 43.2112 98.7262 44.3524 97.6369C45.8566 96.2883 48.917 96.4439 50.8362 97.2219C58.2537 100.023 51.9774 108.011 47.1534 109.567H47.1015Z" fill="white"/>
<path d="M31.2483 5.4457C31.6322 8.81211 31.1135 12.9203 35.6677 11.3641C38.3183 11.9814 38.0745 16.6705 40.8704 16.1363C43.7077 12.7543 48.2879 8.9781 51.618 13.6257C55.5135 10.7313 58.2937 13.8384 58.0396 18.1851C61.0481 17.8635 61.4786 16.5772 61.7016 14.5853C63.8076 11.6961 68.3722 8.68243 71.0695 12.5572C73.331 11.9918 76.8582 7.13669 79.1198 11.4471C80.8523 20.7735 82.2632 11.6443 85.308 17.4019C85.0227 21.0588 84.3224 39.0009 78.9382 33.2847C78.321 30.1776 78.1758 32.1902 75.1413 30.4266C74.7419 26.6919 75.6393 21.8109 75.9661 17.0647C75.0687 12.0385 73.7201 23.8546 73.9224 25.7479C75.5718 33.2121 67.1844 32.9216 68.4241 28.4504C67.895 26.5052 68.2944 13.7554 66.2559 16.2452C65.5504 19.0203 65.6282 17.2203 65.0265 20.4623C64.513 22.1947 65.3274 27.6256 61.3593 27.4441C60.4152 25.6182 60.2441 27.0032 58.9162 26.3133C58.7346 22.9987 57.3912 25.3485 55.472 24.2696C55.0674 23.3566 54.4138 23.8857 53.8017 24.171C52.4116 21.5464 53.0911 26.6556 51.9862 27.5789C51.0889 26.7594 50.3834 28.2325 49.6676 28.6786C45.9018 28.1651 46.4983 23.9013 46.1923 20.9187C46.8147 15.7783 45.5647 21.0692 44.8488 22.8172C43.2564 24.9543 41.5343 22.6927 41.1401 23.9739C36.2539 30.3436 34.4125 22.4437 33.4529 18.1696C31.793 19.5286 31.2898 24.3526 28.1932 25.4833C28.0531 25.7271 27.6796 25.2551 27.6381 25.0839C27.3114 26.0799 26.0457 26.1006 25.9524 27.1847C24.3444 30.3125 24.5259 36.4021 20.1376 35.6863C17.9746 35.095 17.7827 33.2847 16.8905 30.5719C15.9206 29.9857 15.0024 30.5926 15.0751 28.8964C14.1103 32.3199 10.5364 37.2736 7.65237 31.8894C-1.16046 36.1687 -2.38979 30.3799 5.9562 25.9554C10.054 25.613 9.02695 23.5123 10.8165 20.5401C16.5482 16.074 17.3626 23.0454 21.1388 25.4107C22.8557 21.7798 25.0602 21.7331 26.5852 19.1084C28.3851 15.7472 23.4522 1.71101 31.2328 5.45608L31.2483 5.4457Z" fill="white"/>
<path d="M32.176 98.4949C26.8333 102.8 18.9489 105.446 13.1394 100.57C11.9464 99.5323 11.2202 98.0799 10.5459 96.6794C9.61222 94.6046 8.57481 92.1148 8.21171 89.7806C7.693 84.8529 8.78229 80.0289 9.301 75.2049C10.1828 67.6318 12.2576 59.4363 16.7185 53.108C22.4761 46.313 34.1471 49.529 38.3486 56.5834C39.801 58.7619 40.8384 60.9924 41.772 63.4822C43.3282 68.1505 46.1292 66.6981 49.0858 64.0527C50.8494 62.5485 51.5756 60.3699 52.1462 58.2432C53.028 55.0791 54.4285 51.8631 56.0884 49.0102C59.045 44.0307 62.3647 41.2815 68.3817 43.0451C77.2516 44.705 83.4242 52.3818 84.8766 61.0961C86.1215 66.5944 87.4183 71.9371 87.2108 77.591C87.107 83.5042 84.6172 89.5212 79.5858 92.841C72.272 97.4575 60.653 98.028 55.1547 90.3512C51.9387 86.1497 50.5901 80.9626 50.227 75.6718C50.1232 74.5306 50.0714 72.9226 49.4489 72.0408C48.9821 71.3665 48.1003 71.2628 47.1147 71.7296C42.9132 73.8563 44.6249 79.6658 42.8095 83.2449C41.9795 85.3197 40.994 87.1871 39.801 89.1582C37.6743 92.7891 35.5476 95.7976 32.2278 98.3911H32.176V98.4949ZM66.5144 92.841C72.8426 92.9447 79.2227 88.8469 80.9344 82.6224C82.8018 76.6573 81.1938 70.1735 80.2601 64.1046C79.2746 58.1395 77.0441 51.6556 71.5458 48.4915C68.7967 46.9354 64.8026 45.9499 62.3128 48.4915C61.5348 49.2177 60.9123 50.2033 60.3936 51.1888C58.8894 54.2492 57.6963 57.0502 56.6589 60.2143C54.636 66.8538 53.806 74.3231 55.414 81.1701C56.6071 86.6165 60.238 92.6854 66.3587 92.8928H66.4625L66.5144 92.841ZM28.1819 96.5757C33.4209 92.011 37.1556 85.5272 38.3486 78.6803C39.2304 72.0927 37.9336 65.4533 35.0807 59.5919C33.5246 56.4796 30.568 54.0936 27.0408 53.7305C22.8911 53.108 21.4906 54.6123 19.6233 58.0357C16.3035 63.5859 14.4362 69.8623 13.71 76.2942C13.295 80.9626 12.2576 85.6828 12.9838 90.3512C14.4362 99.636 20.4013 102.748 28.1301 96.6794H28.2338L28.1819 96.5757Z" fill="white"/>
<path d="M169.228 70.0941C169.174 70.1216 167.99 70.2708 167.814 70.2865L166.623 70.3885C166.359 70.4121 165.916 70.3885 165.641 70.3532L163.925 70.1491C163.807 70.0313 163.559 69.9254 163.448 69.839C162.508 69.0854 161.882 68.2729 161.63 67.0287C161.58 66.7775 161.423 66.4399 161.4 66.2319C161.339 65.6353 161.351 64.8778 161.339 64.2262C161.335 63.9946 161.469 63.6335 161.542 63.398C161.782 62.6287 161.439 62.8525 162.008 61.5376C161.97 61.4905 161.821 61.3531 161.859 61.3295L162.115 61.1608C162.073 61.1019 161.977 60.9606 161.95 60.8782C161.924 60.7957 162.13 60.6505 162.183 60.5563C162.711 59.5868 162.283 59.4926 163.009 58.6134L163.024 58.2602C163.459 57.6714 163.872 57.1062 164.201 56.4704C164.201 55.2771 164.437 55.3203 164.414 54.4058C165.308 53.8406 164.827 53.5972 165.82 53.5737C166.267 53.5619 166.787 53.4167 167.192 53.4559L168.376 53.5776L169.755 53.715C170.447 53.7817 169.74 53.4088 171.138 54.2409C171.776 55.1751 171.711 56.278 172.318 57.1455C172.605 57.5537 172.899 57.9815 173.136 58.3701C173.109 58.6134 173.14 58.845 173.178 59.0687C173.262 59.5672 173.373 60.7251 173.377 61.1922C173.377 61.5179 173.025 61.8633 173.224 62.2048L173.037 62.6366C173.205 63.6963 172.823 64.2537 172.876 64.7836C172.926 65.2546 172.758 65.6039 172.571 65.9807C172.483 66.1534 172.437 66.4949 172.387 66.7265C172.345 66.9266 172.208 67.1425 172.135 67.3034C171.91 67.8255 171.715 68.2494 171.302 68.6537C171.092 68.8617 170.901 69.2974 170.622 69.4308L169.232 70.1059L169.228 70.0941Z" fill="white"/>
<path d="M134.943 70.5731L134.102 70.3024L132.611 69.7884C132.022 69.5844 131.548 68.9998 131.139 68.5407L131.196 68.2857C131.192 68.3092 130.321 67.4029 130.275 66.7908L130.217 65.9473L130.145 64.8173C130.087 63.9149 130.416 63.036 130.508 62.1454L130.615 61.1488C130.657 60.7604 130.68 60.4073 130.898 60.0973L131.246 58.6731C131.296 58.4652 131.326 58.2062 131.422 58.0061L131.762 57.3038C131.884 57.0527 132.007 56.8134 132.144 56.5701L132.58 55.8011C132.844 55.3342 133.471 54.4004 133.98 54.1375L135.173 53.5215C135.345 53.4313 135.685 53.3097 135.876 53.2351L138.553 53.0625C139.237 53.3528 139.841 53.6903 140.449 54.1375C140.617 54.8163 140.816 55.4715 140.839 56.1542C140.889 57.6216 141.023 57.7982 141.084 58.9438C141.137 59.909 141.283 60.576 141.164 61.2312L141.405 61.9649C141.21 62.369 141.118 63.707 141.088 64.1699L141.011 65.3077L140.763 66.9949C140.629 67.8973 140.281 68.6741 139.761 69.3725C139.402 69.859 138.981 70.0316 138.434 70.22C138.174 70.3102 138.014 70.3808 137.704 70.3534C136.599 70.2631 136.867 70.6005 136.278 70.5888L134.939 70.5613L134.943 70.5731Z" fill="white"/>
<path d="M203.792 45.3983C203.869 45.5362 203.941 45.786 203.879 45.9433C203.774 46.2145 203.831 46.4893 203.788 46.7216C203.733 47.0233 203.604 47.2935 203.598 47.6044C203.597 47.6932 203.58 47.8533 203.522 47.8672L203.22 47.9384L203.546 48.1059C203.32 48.3521 203.3 48.5927 203.348 48.8805C203.371 49.0202 203.195 49.3126 203.156 49.4523L202.932 50.2556C202.838 50.5942 202.584 50.7988 202.296 51.0301C202.007 51.2614 201.737 51.8583 201.367 51.9888L200.405 52.3293C199.85 52.5255 199.177 52.4894 198.592 52.4681L198.188 52.2747C197.844 52.2849 197.432 52.1933 197.229 51.8944C197.051 51.6325 196.693 51.3022 196.64 51.0338L196.517 50.4018C196.458 50.0964 196.582 49.6235 196.641 49.2876L196.996 47.2666C197.073 46.8308 197.144 46.4227 197.282 46.0331C197.257 45.7786 197.215 45.3678 197.256 45.1346L197.358 44.5516C196.911 43.5948 197.47 43.1441 197.375 43.0183L197.2 42.7869L197.27 41.6607L197.274 41.0842C197.277 40.5882 197.381 40.1589 197.185 39.6768C197.038 39.314 197.083 38.806 196.998 38.4488C196.942 38.211 196.893 37.9611 196.847 37.7085L196.507 35.8559L196.224 34.2735C196.101 33.5869 196.285 33.2899 196.185 33.2704L195.946 33.2223L195.729 32.4913C195.656 32.2497 195.75 31.7704 195.658 31.5233C195.527 31.1671 195.48 30.9366 195.471 30.5332C195.463 30.2047 195.362 29.8077 195.306 29.4551L195.143 28.44C194.968 27.3508 194.832 27.7062 194.603 26.8456C194.522 26.5374 194.325 26.1442 194.192 25.8258L194.001 25.3641C193.906 25.1346 193.35 24.3684 193.259 23.989C193.146 23.5152 192.856 23.1478 192.644 22.7055C192.58 22.5722 192.574 22.3242 192.44 22.1965C192.212 21.9782 192.103 21.7524 192.005 21.5108L191.703 20.765L191.181 20.1746C191.261 19.922 190.958 19.7795 190.837 19.6499C190.79 19.6 190.818 19.3955 190.785 19.3316C190.752 19.2678 190.565 19.1845 190.523 19.1123C189.808 17.8575 189.723 18.5025 189.45 18.1527C189.405 18.0962 189.453 17.9417 189.49 17.7936C188.922 17.6391 188.594 17.2033 188.233 16.7508L187.627 15.9901C187.431 15.743 187.014 15.669 186.967 15.2729C186.778 15.1628 186.525 15.0101 186.332 14.9222L185.643 14.6085C185.1 14.3615 184.603 14.1033 184.088 13.7738C183.812 13.5971 183.414 13.5601 183.16 13.4333C181.14 12.4237 180.39 12.7606 178.542 12.2211C178.317 12.1554 178.129 11.9462 177.834 12.0369C177.45 12.1554 177.131 12.1026 176.715 12.0665C176.342 12.0351 175.774 12.1563 175.423 12.16C175.332 12.1609 175.116 12.0684 175.037 12.0878L174.513 12.2164L173.729 12.3469C173.431 12.3969 173.071 12.557 172.677 12.6403L171.668 12.855C171.302 12.9327 171.23 13.3186 171.177 13.0261C171.171 12.9928 171.17 12.9216 171.152 12.9401L170.991 13.1067C170.653 13.4564 170.071 13.4944 169.654 13.71L167.145 15.0037C166.954 15.1027 166.74 15.2183 166.547 15.3331L166.147 15.57C166.031 15.6385 165.863 15.88 165.728 15.9494C165.184 16.2307 164.71 16.525 164.17 16.7582C163.873 16.8859 163.517 17.0441 163.31 17.2319C163.283 17.2569 163.142 17.3458 163.127 17.3245C163.104 17.293 163.177 17.3865 163.229 17.4522L161.91 18.2452C161.648 18.4025 161.409 18.5922 161.152 18.7727L160.249 19.4047C159.789 19.7267 159.243 19.9868 158.809 20.3384C158.507 20.5818 158.266 20.7715 157.959 20.9732C157.691 21.15 157.414 21.4544 157.106 21.5608C156.73 21.6913 156.491 21.8579 156.209 22.1179C156.001 22.3094 155.707 22.4529 155.484 22.6074C155.243 22.7758 155.039 22.9692 154.767 23.0932L153.84 23.5115L152.385 24.3351L151.972 24.6127C151.513 24.7367 150.027 25.7139 149.73 25.8147L148.215 26.3283C147.705 26.5014 147.188 26.9104 146.691 26.9937L145.688 27.1611L144.849 27.3471C143.625 27.6183 144.053 27.6655 142.946 27.771L142.165 27.8459L140.921 27.9579C140.306 28.0134 139.78 27.9403 139.153 27.8635C138.702 27.8089 138.023 27.9051 137.625 27.6377C137.444 27.5165 137.017 27.4721 136.833 27.4591C136.11 27.4064 137.324 27.8265 136.115 27.2148C135.879 27.0954 135.534 26.9326 135.288 26.9964C135.202 27.0186 135.015 26.8511 134.931 26.8206C133.947 26.4542 134.262 26.6633 133.826 26.1349C133.774 26.0711 133.538 26.1766 133.471 26.1284L132.765 25.6241C132.109 25.1549 131.636 24.5479 130.963 24.0926L130.5 23.7789L129.623 22.9378C129.598 22.9137 129.687 22.7055 129.653 22.7092L129.452 22.7268L128.793 21.72C128.722 21.6108 128.491 21.4507 128.392 21.3794C128.3 21.1472 128.155 20.8723 127.991 20.6928L128.006 20.2005C128.01 20.0941 127.759 20.0673 127.697 19.9831C127.317 19.4741 127.266 19.3103 127.061 18.8125C126.978 18.6089 126.611 18.298 126.552 18.0851C126.537 18.0296 126.643 17.8556 126.671 17.8057C126.699 17.7557 126.415 17.7205 126.383 17.6724C126.248 17.4624 126.086 17.008 125.944 16.7341L125.777 16.4084L125.932 16.4408C126.447 16.5481 125.533 16.2177 125.702 15.7328C125.456 14.7381 124.62 14.0246 124.474 12.8744L124.007 12.0573C123.943 11.6964 123.807 11.4003 123.704 11.1097L123.466 10.4444L122.868 8.88975L122.595 8.12077C122.292 7.59331 121.599 5.91099 121.63 5.3678C121.336 4.95508 121.121 4.55625 121.091 3.99548C121.1 4.1676 120.567 2.89244 121.215 2.00594L121.656 1.4026C121.783 1.22863 122.093 0.997284 122.257 0.873284C122.349 0.946388 122.429 1.03522 122.463 1.00654L122.65 0.849225C122.894 0.641943 123.369 0.713196 123.68 0.623435C124.297 0.445764 124.846 0.386541 125.436 0.753912L126.304 1.29248C126.354 1.32394 126.515 1.36743 126.533 1.33134L126.645 1.11666L126.814 1.66632C126.823 1.69594 126.767 1.8005 126.762 1.83197C126.764 1.81531 126.966 2.02259 127.154 2.4168C127.637 3.42545 127.483 3.4347 127.852 4.12966L128.157 4.70524L128.599 5.53251L128.798 6.14141C128.877 6.38108 129.063 6.48472 129.313 6.61149L129.323 7.5674C129.471 7.72379 129.609 7.92274 129.584 8.13743C129.526 8.63435 129.794 8.93139 129.954 9.33208C130.05 9.57545 130.111 9.8216 130.323 9.99094L130.277 10.2426C130.243 10.4259 130.669 10.4286 130.679 10.9579C131.033 11.279 130.774 11.2013 131.021 11.7954C131.594 13.1714 131.316 12.049 131.725 13.4398C132.175 14.9713 132.774 14.9944 132.918 15.8245C133.228 16.1409 133.693 16.8711 133.856 17.281C133.973 17.5753 134.756 18.7514 135.132 18.9679C135.083 19.0744 135.021 19.1956 135.085 19.2317C135.166 19.277 135.404 19.3362 135.453 19.3908L136.112 20.1404C136.139 20.1718 136.359 20.158 136.371 20.1987L136.43 20.4078C137.362 20.8742 137.323 21.3378 138.05 21.5664C139.13 21.9051 138.511 22.166 139.541 22.3002L140.155 22.3807L141.127 22.4649C141.682 22.513 141.859 22.6851 142.595 22.699C142.669 22.5972 142.824 22.501 142.914 22.5297C143.396 22.6842 143.784 22.4325 144.252 22.3687L145.19 22.24L146.325 21.7949C146.482 21.7329 146.731 21.5321 146.938 21.5266C147.504 21.5108 147.892 21.2897 148.358 21.0408L150.307 19.9969C150.808 19.7286 151.095 19.3649 151.786 19.3288L151.491 19.2104C152.444 18.9291 152.777 18.1471 153.273 18.1555C154.093 17.343 154.664 17.6919 155.115 16.9469C156.169 16.2622 155.626 16.8646 156.382 16.214L157.082 15.6116L158.332 14.8537C159.052 14.417 159.456 14.1023 160.023 13.5721C160.081 13.5184 160.242 13.5767 160.336 13.598V13.3343C160.338 13.2075 160.554 13.3741 161.036 13.0992L161.79 12.6699C161.998 12.5514 162.235 12.4422 162.432 12.3062L163.552 11.5308C163.761 11.3864 164.056 11.367 164.285 11.2217L165.28 10.5869C165.608 10.3777 165.913 10.3019 166.203 10.0585L166.924 9.92801C167.329 9.55972 167.814 9.36909 168.348 9.25342L168.756 9.03966L169.897 8.56957L170.813 8.23551C170.976 8.17629 171.363 8.18184 171.504 8.08283C171.684 7.95605 171.932 7.67289 172.098 7.6988C172.324 7.73396 172.592 7.75062 172.754 7.59979C172.964 7.40453 173.222 7.51928 173.413 7.47856C174.74 7.19355 174.857 7.32958 176.205 6.91131C176.21 6.80952 176.215 6.88725 176.222 7.08343C176.333 7.13433 176.635 7.08158 176.849 7.05012L177.556 6.94833C178.212 7.11304 178.482 6.75955 179.083 7.06122C179.361 7.20095 179.626 7.09454 179.875 6.93352L180.119 7.14451C180.172 7.19077 180.311 7.10564 180.388 7.08528C181.579 7.46653 181.37 7.00107 182.489 7.45728C182.677 7.53409 182.869 7.56462 183.053 7.58961L184.366 7.7682C185.189 7.88017 185.225 8.30214 186.125 8.35674L186.124 8.54551C186.122 8.80091 186.337 8.45945 186.978 8.75187C188.091 9.25897 187.804 9.10999 188.82 9.73554C188.879 9.77255 189.115 9.74479 189.129 9.83085C189.177 10.1168 189.596 10.1066 189.767 10.1899C190.017 10.3111 190.379 10.648 190.659 10.8534C191.029 11.1245 191.468 11.3244 191.781 11.6362C192.075 11.9287 192.295 12.3044 192.642 12.5116C193.303 12.9086 193.771 13.3759 194.248 13.9413L194.725 14.5058C195.05 14.8908 195.307 15.2914 195.602 15.744C195.733 15.9448 196.199 16.165 196.242 16.3936C196.347 16.9442 196.785 17.5419 197.116 17.9417C197.843 18.8217 197.088 18.2286 197.798 19.1845C197.971 19.4167 197.985 19.7832 198.338 19.9932C198.483 20.0793 198.517 20.3995 198.58 20.5392L198.895 21.2314C199.074 21.6237 199.402 22.1105 199.576 22.4362C199.657 22.5861 199.712 22.922 199.769 23.0775L200.138 24.0778C200.157 24.1287 200.319 24.2453 200.287 24.2823L200.126 24.4711C200.557 24.6506 200.392 24.8616 200.679 25.6963L200.968 26.5347C201.094 26.7817 201.177 26.9289 201.191 27.1463L201.255 28.0606C201.6 28.3077 201.68 28.7398 201.59 29.1165C201.636 29.1933 201.762 29.3857 201.762 29.4829C201.781 31.0819 202.79 31.5169 202.219 32.061C202.206 32.0341 202.234 32.0943 202.256 32.1424C202.335 32.1322 202.534 32.1156 202.538 32.1859L202.559 32.5051L202.603 33.1982C202.607 33.2501 202.558 33.4416 202.605 33.4499L202.873 33.4953C202.498 33.8765 202.857 34.255 202.865 34.5567L202.89 35.4996C202.899 35.8531 203.026 36.2399 203.174 36.5425C203.245 36.6887 203.104 36.9904 203.33 37.1523L203.293 37.7955L203.346 38.1832C203.393 38.5321 203.327 38.918 203.467 39.2844C203.588 39.599 203.594 39.9396 203.576 40.2486C203.604 40.4059 203.795 40.7169 203.754 40.8658C203.51 41.7412 203.983 41.2739 203.817 42.0577C203.804 42.1169 203.89 42.3094 203.858 42.3557C203.396 43.0229 204.332 43.2616 203.866 43.7308L203.872 44.5951C203.792 44.6987 203.725 44.7857 203.764 44.7357C203.891 44.7959 203.965 44.8274 203.964 44.8348C203.964 44.8449 203.935 44.9282 203.922 44.9689L203.793 45.3983H203.792Z" fill="white"/>
<path d="M174.103 126.408L173.704 127.026C172.951 128.171 173.455 127.452 172.741 128.165L171.593 129.312L170.645 130.286C170.233 130.709 169.885 131.336 169.259 131.509C168.386 131.752 169.006 131.953 168.193 132.405L167.642 132.712C167.411 132.841 167.316 132.922 167 132.913C166.802 132.908 166.604 133.328 166.545 133.495C166.441 133.405 166.368 133.322 166.334 133.368C166.113 133.676 165.969 133.767 165.489 134.026L164.839 134.378C163.899 134.424 163.323 135.029 162.568 135.278C161.391 135.368 162.442 135.51 160.491 135.834C160.244 135.876 160.014 135.917 159.829 136.113C159.569 136.389 159.288 136.284 159.049 136.36L157.869 136.735C157.652 136.804 157.252 136.746 157.008 136.866C156.7 137.017 155.751 137.1 155.461 137.109L155.403 137.269C155.394 137.294 155.286 137.198 155.256 137.193C153.655 136.964 154.228 137.262 153.63 137.24C153.351 137.229 153.13 137.219 152.85 137.17C151.661 136.963 151.858 137.747 150.722 136.982C150.335 137.373 148.909 137.121 148.388 137.037L147.706 136.929L147.145 136.76L146.104 136.567C145.954 136.539 145.792 136.474 145.615 136.434L144.994 136.289L143.97 135.953L142.744 135.547C142.443 135.447 141.746 135.035 141.437 135.134C141.43 135.143 141.513 134.981 141.472 134.962L141.186 134.83C140.953 134.723 140.515 134.672 140.312 134.545L139.296 133.915L138.271 133.337C138.173 133.281 138.045 133.044 137.988 132.941C137.649 132.98 137.407 132.679 137.283 132.379C136.269 132.168 137.025 131.719 136.416 131.932L136.33 131.706C136.307 131.647 136.101 131.633 136.048 131.601C134.849 130.859 135.919 131.341 134.926 130.729C134.511 130.473 134.122 129.99 133.715 129.669C133.484 129.488 132.976 129.102 132.97 128.841C132.002 128.255 132.793 128.049 131.895 127.701C131.673 127.616 131.592 127.279 131.475 127.153C131.297 126.962 131.091 126.701 130.954 126.525L130.392 125.81C129.785 125.038 129.42 124.014 129.395 123.981L128.908 123.359C128.792 123.209 128.635 123.135 128.628 122.907C128.621 122.692 128.415 122.533 128.379 122.403L128.155 121.601C128.136 121.534 128.153 121.37 128.142 121.308C128.127 121.234 127.405 121.04 127.384 119.785C127.364 119.767 127.266 119.679 127.267 119.68C127.268 119.683 127.312 119.602 127.352 119.533C126.87 119.243 126.759 118.668 126.565 118.177L126.395 117.752C126.268 117.431 126.275 117.098 126.303 116.775L126.393 115.771C126.404 115.641 126.496 115.454 126.554 115.291C127.011 114.011 127.284 114.771 126.946 114.234L127.459 114.119L128.248 113.882C128.621 113.769 128.95 113.694 129.319 113.668C130.381 113.594 131.15 113.315 132.114 113.92L132.557 114.386C132.768 114.608 132.953 114.804 133.073 115.083L133.406 115.857L134.101 117.4C133.996 117.841 134.092 118.064 134.292 118.407C134.426 118.636 134.531 118.93 134.627 119.163L134.939 119.908C135.094 120.28 135.457 121.242 135.636 121.4C135.925 121.653 135.957 122.122 136.103 122.338C136.532 122.968 137.482 124.461 137.984 124.927L138.459 125.367C138.568 125.468 138.693 125.653 138.784 125.737L139.322 126.231C139.545 126.437 139.764 126.573 139.967 126.771L140.483 127.276C140.719 127.508 140.961 127.678 141.243 127.879C141.59 128.127 141.867 128.576 142.247 128.705C142.812 128.897 143.213 129.435 143.627 129.76C143.775 129.876 144.142 129.963 144.287 130.097L144.872 130.349L145.95 130.855C146.99 131.343 147.292 131.171 147.802 131.407C148.113 131.551 148.276 131.615 148.562 131.66L149.432 131.797C150.837 132.018 149.085 131.988 151.209 132.036L152.439 132.063L153.708 131.989C154.008 131.971 154.329 131.94 154.628 131.893L155.359 131.783L156.348 131.622C157.478 131.438 157.491 131.286 158.418 131.088C158.702 131.027 159.002 130.91 159.282 130.797L160.06 130.483C160.624 130.255 161.039 129.894 161.549 129.581C162.289 129.129 163.079 128.792 163.761 128.211C164.103 127.92 164.427 127.679 164.83 127.432C165.202 127.193 165.594 126.705 165.941 126.328L166.521 125.701L167.311 124.837C167.488 124.643 167.661 124.402 167.835 124.187C168.19 123.749 168.971 123.057 168.863 123.194C169.305 122.631 169.746 121.967 170.11 121.357C170.236 121.148 170.323 120.94 170.462 120.773C170.629 120.573 170.827 120.359 170.956 120.166L171.464 119.404L172.081 118.479L171.963 118.238C171.937 118.185 172.134 118.097 172.222 118.05C172.179 117.575 172.383 117.091 172.678 116.748C172.648 116.713 172.627 116.577 172.662 116.537L173.658 115.414L174.172 115.04L174.66 114.686C175.272 113.961 175.39 114.566 175.948 114.009L176.068 114.105C176.095 114.127 176.209 113.989 176.244 113.981C177.229 113.774 178.059 114.176 178.655 114.218C178.7 114.221 178.657 114.294 178.61 114.435C179.056 115.005 179.359 115.049 179.784 115.59C179.841 115.888 179.952 116.126 180.054 116.275C180.011 116.478 180.002 116.786 180.058 117.048L180.196 117.692C180.232 117.863 180.206 118.213 180.19 118.409C180.178 118.567 179.873 118.754 179.728 118.872C179.803 119.234 179.539 119.43 179.286 119.699L178.841 120.171L178.369 120.697C177.759 121.376 178.132 121.428 177.581 122.014C177.198 122.421 176.853 122.838 176.638 123.351C176.489 123.705 176.218 123.906 175.994 124.181L175.448 124.851C175.31 125.021 175.311 125.38 175.004 125.504C174.553 125.687 174.888 126.378 174.106 126.408H174.103Z" fill="white"/>
<path d="M158.86 105.325C159.061 107.476 158.219 106.804 157.65 108.159C157.031 108.36 156.535 108.878 155.944 108.943L154.343 109.12C154.124 109.144 153.884 109.102 153.642 109.206L153.06 108.967C152.929 109.054 152.776 109.225 152.658 109.189C152.529 109.15 152.27 108.95 152.139 108.924C151.861 108.866 151.4 108.909 151.153 108.576C150.871 108.587 150.503 108.653 150.183 108.729C149.853 108.204 149.247 108.12 148.764 107.892L147.584 107.339C146.821 106.98 146.816 106.867 146.24 106.281L146.035 106.425C146.001 106.45 145.954 106.327 145.935 106.288C145.916 106.249 145.955 106.194 146.023 106.076C145.758 106.003 145.528 105.739 145.494 105.42C145.384 105.414 145.149 105.415 145.106 105.319C145.054 105.203 144.991 104.953 144.971 104.852L144.687 104.709C144.584 104.657 144.623 104.448 144.735 104.365C143.949 104.118 144.119 103.427 143.686 102.856C143.221 102.241 143.461 102.52 143.185 101.372C143.109 101.059 142.931 100.781 142.66 100.599C142.754 100.054 142.604 99.5452 142.41 99.0333C142.234 98.5666 142.372 97.9095 142.313 97.4206C142.302 97.3272 142.143 97.1378 142.181 97.0694L142.337 96.7894C142.257 96.3467 142.415 96.3393 142.368 95.5566C142.342 95.1222 142.163 94.686 142.344 94.2729C142.525 93.8598 142.554 93.4291 142.477 92.9717C142.43 92.6907 142.757 92.248 142.868 91.9763L143.125 91.3414C142.812 90.6733 143.409 90.5504 143.246 90.3507L143.049 90.1077C143.501 89.8665 143.577 89.4488 143.429 88.9885C143.578 88.7178 143.813 88.3259 143.831 88.0496L143.881 87.2761L144.229 87.07C144.306 87.0238 144.134 86.7095 144.162 86.6199L144.42 85.7789C144.677 85.7078 144.996 84.5729 145.066 84.2448C145.169 83.7596 145.36 83.2439 145.544 82.7283L145.671 82.3725L146.039 81.3383C146.152 81.0195 146.503 80.6535 146.598 80.3606L147.247 78.3524C147.188 78.5381 147.608 77.1805 147.503 77.4753L147.848 76.5031L148.05 75.8497C148.162 75.4902 148.232 75.1908 148.324 74.8396L148.693 73.433C149.65 73.1161 148.717 73.0218 149.64 72.166C149.811 72.0089 149.961 71.8814 150.182 71.7548C151.382 71.0672 150.339 71.5191 151.947 71.1984C152.116 71.1652 152.5 71.1504 152.661 71.2003L153.78 71.5459C153.858 71.5699 154.096 71.4609 154.144 71.5145C154.307 71.6965 154.455 72.008 154.496 71.9609L154.651 71.788C154.624 72.0098 154.625 72.2473 154.773 72.3712C155.089 72.6336 154.866 72.9506 154.936 73.1401C155.033 73.4016 155.162 73.775 155.112 74.0744L154.931 75.176C154.9 75.3608 154.774 75.6945 154.689 75.9052C154.178 77.1694 153.963 76.6787 153.719 77.6158L153.6 78.0696C153.55 78.2609 153.282 78.5529 153.183 78.7045C153.172 78.8847 153.137 79.1388 153.056 79.3015L152.788 79.8384C152.744 79.9262 152.944 80.2035 152.867 80.258L152.528 80.4927L152.531 80.7016C152.532 80.758 152.337 80.8448 152.311 80.9021L151.95 81.6904C152.158 82.1553 151.984 82.5194 151.583 82.6728L151.731 82.8632C151.756 82.8955 151.632 82.9695 151.574 83.0111C151.567 83.9519 150.899 83.9214 151.052 84.6782C150.693 84.8742 150.745 85.3279 150.643 85.5654L150.226 86.5321C150.112 86.7983 150.015 87.1938 149.9 87.4027C149.761 87.6568 149.676 87.7428 149.695 88.0727C149.729 88.678 149.434 89.2667 149.302 89.8499C149.126 90.6215 149.305 90.4792 149.134 90.9995L148.906 91.6936C148.818 91.9616 148.957 92.3673 148.573 92.4837L148.733 92.7582C148.773 92.8266 148.654 92.9476 148.556 93.0955C148.457 93.2434 148.573 93.5798 148.606 93.8127C148.72 94.6352 148.418 94.6509 148.588 96.0242L148.692 96.855C148.726 97.1359 148.731 97.5001 148.727 97.744C149.226 98.1978 149.085 98.9214 149.175 98.9621L149.477 99.0989L149.36 99.2301C149.364 99.2255 149.921 100.271 150.114 100.53L150.51 101.063C150.73 101.358 151.157 101.563 151.321 101.93L151.957 102.295C152.131 102.285 152.522 102.208 152.669 102.118L153.239 101.77C153.552 101.577 153.91 101.235 154.253 101.175C155.442 100.97 155.631 101.022 156.6 101.573C157.268 101.953 157.773 102.646 158.025 103.341C158.347 104.233 158.278 103.354 158.46 104.144C158.498 104.205 158.691 104.318 158.693 104.392L158.699 104.693C158.811 104.756 159.027 104.832 159.028 104.926C159.029 105.019 158.931 105.197 158.867 105.322L158.86 105.325Z" fill="white"/>
<path d="M187.198 52.2983L186.903 52.4859C186.554 52.1236 186.214 51.7723 186.177 51.3184C186.087 50.1879 185.91 51.1825 186.199 49.7858C186.082 49.4447 186.136 49.2284 186.319 48.9557L186.336 47.9712C186.428 47.9481 186.493 47.9564 186.495 47.912C186.529 46.9765 186.223 46.1917 186.142 44.9012C186.133 44.7543 186.107 44.4492 186.067 44.3179L185.74 43.2419L185.523 42.5866C185.358 42.0892 185.087 41.5743 184.972 41.0835C184.729 40.0463 184.982 40.8968 184.489 39.8134C184.443 39.3364 184.346 38.778 183.946 38.4748C183.597 38.2095 183.426 37.7011 183.209 37.3036L182.815 36.5789C182.703 36.3746 182.597 36.0529 182.539 35.8505L181.364 34.5961C181.302 34.5295 181.141 34.426 181.159 34.3566L181.255 33.9989L180.873 34.0248C180.8 34.0294 180.302 33.301 180.003 33.0181L179.12 32.1815C178.944 32.0151 178.53 31.8247 178.315 31.7138L177.648 31.3708L176.632 30.8495L176.179 30.6322C175.486 30.3013 175.518 30.5306 175.084 30.1358L174.505 30.0813L173.209 29.9121C172.824 29.8622 172.51 29.7485 172.102 29.4851L172.058 29.7596C172.017 30.0184 171.155 29.4795 170.832 29.6487C170.429 29.8585 170.038 29.7559 169.619 29.7661L168.856 29.7864C168.487 29.7957 167.994 30.0074 167.591 29.9121L167.311 30.2024C167.244 30.2717 166.971 30.1719 166.886 30.207L166.114 30.525C165.602 30.7367 165 31.381 164.759 31.0445L164.011 31.4365L163.323 31.8127L162.45 32.3248C162.154 32.4986 161.9 32.7316 161.547 32.8277L161.259 33.2002L160.586 33.5949C160.645 33.7197 160.703 33.8214 160.653 33.8464C160.585 33.8806 160.425 33.8806 160.283 33.8602L159.548 34.7246C159.252 35.073 158.797 35.3125 158.466 35.6323C158.234 35.8579 158.026 36.101 157.791 36.2498C157.768 36.309 157.72 36.504 157.653 36.517L157.311 36.5835C157.19 36.7841 156.996 37.0993 156.803 37.25L155.769 38.0607C155.573 38.2132 155.372 38.3861 155.244 38.595C154.942 39.0849 154.548 39.3521 154.122 39.6895C153.923 39.8466 153.718 40.184 153.478 40.3338C153.313 40.4373 153.121 40.5649 152.994 40.6767C151.825 41.713 152.649 41.2351 151.646 41.7417C150.608 42.2649 150.612 42.6217 149.893 42.7797C149.014 42.9729 149.299 43.5997 148.291 43.2077L147.7 43.6727C146.817 43.7772 146.024 44.3864 145.358 44.2856C144.511 44.158 144.679 44.4483 143.816 44.5065L143.092 44.5546L142.628 44.5065C142.71 44.6017 142.793 44.6794 142.755 44.6923C142.682 44.7182 142.552 44.7441 142.501 44.7164C142.455 44.6905 142.364 44.6073 142.324 44.6184C142.269 44.6332 142.132 44.8227 142.082 44.8014L141.625 44.6119C141.514 44.5657 141.267 44.7783 141.152 44.8153C141.078 44.8393 140.906 44.6239 140.838 44.6618C140.77 44.6997 140.682 44.7885 140.573 44.9012C140.479 44.9974 140.19 44.8144 140.053 44.8153L139.194 44.8181C138.755 44.819 138.345 44.6563 137.974 44.6073L137.214 44.5075C136.644 44.5814 137.096 44.1922 135.922 44.0702L135.297 44.0055C135.048 43.9796 134.825 43.8493 134.596 43.7624C134.158 43.596 133.63 43.3473 133.225 43.0904C133.117 43.0219 132.832 42.985 132.717 42.9461L132.081 42.7308C132.028 42.7132 131.848 42.6087 131.859 42.557L131.911 42.3018C131.428 42.5755 129.834 41.1343 129.646 41.0142L128.869 40.5214L128.076 39.83L127.34 39.1589C127.259 39.0849 127.168 38.9537 127.087 38.8122L126.941 38.8316C126.902 38.8372 126.908 38.6995 126.902 38.681C126.79 38.7115 126.627 38.7882 126.58 38.7374L126.378 38.5192C126.063 38.179 125.793 37.8167 125.413 37.5717L124.567 37.0263L123.225 35.6434C123.152 35.5685 122.929 35.5667 122.881 35.4798C122.812 35.3522 122.73 35.1821 122.685 35.0795C122.407 35.0925 122.02 34.2892 121.618 34.0451L121.181 33.7798C120.91 33.6153 120.776 33.4008 120.597 33.1244L119.977 32.7861C119.798 32.4801 119.607 32.3193 119.391 32.0641L118.895 31.4781L118.276 30.8837C118.062 30.6775 117.895 30.3614 117.72 30.158C117.455 29.8521 117.08 29.608 116.862 29.1939C116.746 28.9739 116.433 28.8722 116.271 28.679L115.659 27.9496C115.91 28.2482 114.685 27.04 114.928 27.0484L114.618 27.0373C114.544 27.0345 114.363 26.9984 114.299 26.9596C114.236 26.9208 114.268 26.7452 114.266 26.6481C113.5 26.2201 113.737 25.7764 113.651 25.7671L113.377 25.7376L112.895 25.2818C112.549 24.9555 112.285 24.5044 111.892 24.2021C111.689 24.0459 111.405 23.8278 111.391 23.6355C111.388 23.6022 111.454 23.4432 111.431 23.4672C111.407 23.4913 111.201 23.5014 111.184 23.4737C110.966 23.1243 110.4 22.6029 110.085 22.2914C109.77 21.9799 109.647 22.0141 109.239 21.868C107.042 21.0814 107.264 20.5905 106.48 20.2827C106.123 20.1431 106.248 19.5339 106.26 19.2317C106.169 19.117 106.08 18.9747 106.065 18.8342C106.043 18.6142 106.182 18.5162 106.372 18.3904L106.586 17.7757C106.603 17.7267 106.809 17.5862 106.785 17.54L106.703 17.3829L107.622 16.6239C107.643 16.4825 107.627 16.3143 107.706 16.3161L108.124 16.3272C108.482 16.0037 109.228 15.7781 109.82 15.9519C110.018 16.0101 110.386 15.9482 110.644 15.9796L111.73 16.1137C111.923 16.1377 112.088 16.2274 112.261 16.28L112.989 16.5001C113.388 16.6212 114.158 17.2784 114.523 17.6103L115.557 18.5504C115.633 18.6197 115.773 18.7704 115.839 18.8406L116.553 19.6144L117.326 20.4241L118.328 21.4678C118.359 21.4992 118.37 21.6841 118.405 21.6933L118.615 21.7497C118.721 21.9706 118.985 22.2378 119.199 22.358L119.446 22.9071C119.465 22.9496 119.705 22.8766 119.716 22.9228L119.775 23.1585C120.102 23.3369 120.365 23.703 120.788 24.1587L121.318 24.729L121.949 25.378C122.241 25.6775 122.711 25.8337 122.917 26.2524L122.548 26.1036C122.686 26.6657 123.024 26.405 123.566 27.1463C123.9 27.6039 124.177 28.0902 124.706 28.2944C125.5 28.6013 124.88 29.1292 126.039 29.6136L126.279 30.2033C126.696 30.2348 126.853 30.5047 126.945 30.8005C127.164 30.9179 127.568 31.1286 127.726 31.3061C128.201 31.8367 128.687 32.2241 129.207 32.6576C129.6 32.9858 130.003 33.3324 130.437 33.6033L130.466 33.8815C130.499 34.1939 130.898 33.7909 131.248 34.4787C131.492 34.9566 132.057 35.1396 132.446 35.4604L133.351 36.2064C133.536 36.3589 133.647 36.565 133.85 36.5641C134.286 36.5613 134.583 37.1345 134.965 37.3018L136.281 37.8804C136.546 37.9969 136.715 38.1115 136.775 38.3796L136.969 38.1356C137.009 38.0857 137.156 38.2382 137.218 38.2742L137.634 38.5127C138.039 38.7448 138.459 38.9232 138.983 39.0008L139.554 39.0868C139.868 39.268 140.168 39.3281 140.571 39.2744C141.642 39.1312 142.202 39.6322 144.495 39.097C144.584 39.0766 144.821 39.1765 144.873 39.1136L145.125 38.8095C145.619 38.9185 146.369 38.8067 146.665 38.3362L146.922 38.3916C147.008 38.4101 147.152 38.2576 147.235 38.2299L147.653 38.0884C147.707 38.0699 147.835 38.0561 147.891 38.0468C147.96 38.0348 147.996 37.7825 148.067 37.7815L148.413 37.7769C148.506 37.776 148.6 37.5652 148.663 37.4423C148.722 37.3277 149.038 37.2685 149.151 37.1853L150.293 36.3478C150.729 36.028 151.317 35.404 151.632 34.9621C151.802 34.903 152.061 34.7902 152.192 34.6155C152.449 34.2716 152.746 34.059 153.052 33.7946C153.331 33.5533 153.573 33.2834 153.895 33.1143C154.119 32.9959 154.328 32.7528 154.561 32.5772C154.754 32.4311 154.897 32.2351 155.069 32.0678C155.365 31.7794 155.719 31.4966 156.058 31.2285L156.799 30.6443C157.017 30.4723 157.291 30.4779 157.483 30.1793C157.743 29.7744 158.334 29.7531 158.74 29.5322L159.396 29.1754C159.706 28.7696 160.091 28.4618 160.587 28.2639L161.372 27.9506C161.702 27.8184 162.052 27.6058 162.383 27.4542L163.84 26.7831C164.06 26.6814 164.203 26.5843 164.432 26.4512C164.696 26.2987 165.307 26.2007 165.595 26.0787C165.669 26.0472 165.862 26.1489 165.915 26.1045L166.154 25.8993L166.212 26.0639C166.217 26.0768 166.773 25.8309 167.149 25.7108C167.894 25.4723 168.633 25.2171 169.391 25.3179C169.439 25.2005 169.502 25.0091 169.567 25.0267L169.875 25.1108L170.167 25.1903C170.231 25.2079 170.319 25.0304 170.351 24.9906C170.577 25.292 170.848 24.9925 171.072 24.9934L171.651 24.9962L172.401 25.0101L173.744 25.0221L174.937 25.0082C175.001 25.0082 175.11 25.2809 175.171 25.2569L175.515 25.1201L175.775 25.3086C176.193 25.3826 176.717 25.377 177.092 25.5249C177.347 25.6248 177.505 25.7958 177.808 25.7209C178.149 25.6368 178.387 25.7644 178.641 26.0278L178.664 25.8938C178.67 25.854 178.652 25.8078 178.677 25.818C179.322 26.0925 179.065 25.7792 179.362 26.1924L180.386 26.4743L180.368 26.6388C180.363 26.6767 180.359 26.7276 180.38 26.7211L180.543 26.6675C180.805 26.5815 181.038 26.6453 181.256 26.7988L181.905 27.2582C182.944 27.6427 182.636 27.713 183.257 27.9811C183.303 28.0014 183.329 28.165 183.357 28.2242C184.731 28.6938 184.203 29.1356 184.396 29.1957L184.781 29.315C184.902 29.4712 185.082 29.6311 185.235 29.7873L185.965 30.5333L186.342 30.8023C186.875 31.1823 187.319 31.7859 187.636 32.3128L188.26 33.3463C188.512 33.765 188.727 34.5914 189.17 34.8771C189.289 34.9538 189.331 35.3088 189.373 35.4243C189.7 35.832 190.477 37.2343 190.677 37.7104L191.017 38.522C191.44 39.5296 190.85 38.9093 191.714 39.8439L191.579 40.2109C191.551 40.2885 191.733 40.4124 191.765 40.4937C192.166 41.5078 191.925 41.0835 192.19 41.7167C192.622 42.7511 192.739 44.0351 192.804 44.1858C192.946 44.5148 193.025 44.7617 193.054 45.0907L193.118 45.8155C193.121 45.8432 192.915 45.9181 192.939 45.931C192.975 45.9495 193.112 46.0586 193.112 46.0993L193.099 47.1022C193.092 47.6818 193.01 48.1893 193.029 48.6968C193.038 48.9455 192.738 49.3661 193.051 49.6591L192.801 49.8292C192.745 49.8671 192.914 50.0483 192.981 50.1398L192.671 50.5798C192.705 50.6307 192.839 50.7582 192.81 50.8118C192.774 50.8793 192.658 51.0355 192.599 51.0836L191.654 51.8388L191.744 52.1171C191.754 52.1504 191.643 52.1143 191.583 52.1042C190.717 52.3593 190.645 53.0359 189.772 52.717L189.811 52.8723C189.817 52.8964 189.834 52.9786 189.811 52.9657C189.777 52.9472 189.66 52.8862 189.623 52.889L189.237 52.9121C188.723 52.9426 187.452 52.9971 187.192 52.2973L187.198 52.2983Z" fill="white"/>
</g>
<defs>
<clipPath id="clip0_129_31">
<rect width="204" height="137.457" fill="white"/>
</clipPath>
</defs>
</svg>
