<svg width="394" height="265" viewBox="0 0 394 265" fill="none" xmlns="http://www.w3.org/2000/svg">
<g clip-path="url(#clip0_1_31)">
<path d="M112.737 244.133C109.537 242.833 105.937 243.333 102.037 243.333C97.2369 243.633 91.0369 242.533 86.9369 245.033C83.2369 247.433 83.6369 251.933 87.5369 253.733C90.5369 255.333 95.2369 255.533 99.4369 255.533C103.237 255.533 106.737 255.633 110.237 254.933C116.837 253.733 119.237 247.033 112.837 244.133H112.637H112.737Z" fill="white"/>
<path d="M90.8056 211.23C79.6056 213.83 90.5056 204.43 92.0056 200.63C93.3056 197.83 92.6056 195.73 90.7056 194.53C89.6056 193.93 88.2056 193.63 87.0056 193.13C84.5056 192.43 83.3056 190.33 85.5056 188.23C88.4056 185.63 94.3056 185.93 98.0056 187.43C112.306 192.83 100.206 208.23 90.9056 211.23H90.8056Z" fill="white"/>
<path d="M60.2428 10.4997C60.9828 16.9897 59.9828 24.9097 68.7628 21.9097C73.8728 23.0997 73.4028 32.1397 78.7928 31.1097C84.2628 24.5897 93.0928 17.3097 99.5128 26.2697C107.023 20.6897 112.383 26.6797 111.893 35.0597C117.693 34.4397 118.523 31.9597 118.953 28.1197C123.013 22.5497 131.813 16.7397 137.013 24.2097C141.373 23.1197 148.173 13.7597 152.533 22.0697C155.873 40.0497 158.593 22.4497 164.463 33.5497C163.913 40.5997 162.563 75.1897 152.183 64.1697C150.993 58.1797 150.713 62.0597 144.863 58.6597C144.093 51.4597 145.823 42.0497 146.453 32.8997C144.723 23.2097 142.123 45.9897 142.513 49.6397C145.693 64.0297 129.523 63.4697 131.913 54.8497C130.893 51.0997 131.663 26.5197 127.733 31.3197C126.373 36.6697 126.523 33.1997 125.363 39.4497C124.373 42.7897 125.943 53.2597 118.293 52.9097C116.473 49.3897 116.143 52.0597 113.583 50.7297C113.233 44.3397 110.643 48.8697 106.943 46.7897C106.163 45.0297 104.903 46.0497 103.723 46.5997C101.043 41.5397 102.353 51.3897 100.223 53.1697C98.4928 51.5897 97.1328 54.4297 95.7528 55.2897C88.4928 54.2997 89.6428 46.0797 89.0528 40.3297C90.2528 30.4197 87.8428 40.6197 86.4628 43.9897C83.3928 48.1097 80.0728 43.7497 79.3128 46.2197C69.8928 58.4997 66.3428 43.2697 64.4928 35.0297C61.2928 37.6497 60.3228 46.9497 54.3528 49.1297C54.0828 49.5997 53.3628 48.6897 53.2828 48.3597C52.6528 50.2797 50.2128 50.3197 50.0328 52.4097C46.9328 58.4397 47.2828 70.1797 38.8228 68.7997C34.6528 67.6597 34.2828 64.1697 32.5628 58.9397C30.6928 57.8097 28.9228 58.9797 29.0628 55.7097C27.2028 62.3097 20.3128 71.8597 14.7528 61.4797C-2.23724 69.7297 -4.60724 58.5697 11.4828 50.0397C19.3828 49.3797 17.4028 45.3297 20.8528 39.5997C31.9028 30.9897 33.4728 44.4297 40.7528 48.9897C44.0628 41.9897 48.3128 41.8997 51.2528 36.8397C54.7228 30.3597 45.2128 3.29966 60.2128 10.5197L60.2428 10.4997Z" fill="white"/>
<path d="M62.0312 189.886C51.7312 198.186 36.5312 203.286 25.3312 193.886C23.0312 191.886 21.6312 189.086 20.3312 186.386C18.5312 182.386 16.5312 177.586 15.8312 173.086C14.8312 163.586 16.9312 154.286 17.9312 144.986C19.6312 130.386 23.6312 114.586 32.2312 102.386C43.3312 89.2861 65.8312 95.4861 73.9312 109.086C76.7312 113.286 78.7312 117.586 80.5312 122.386C83.5312 131.386 88.9312 128.586 94.6312 123.486C98.0312 120.586 99.4312 116.386 100.531 112.286C102.231 106.186 104.931 99.9861 108.131 94.4861C113.831 84.8861 120.231 79.5861 131.831 82.9861C148.931 86.1861 160.831 100.986 163.631 117.786C166.031 128.386 168.531 138.686 168.131 149.586C167.931 160.986 163.131 172.586 153.431 178.986C139.331 187.886 116.931 188.986 106.331 174.186C100.131 166.086 97.5312 156.086 96.8312 145.886C96.6312 143.686 96.5312 140.586 95.3312 138.886C94.4312 137.586 92.7312 137.386 90.8312 138.286C82.7312 142.386 86.0312 153.586 82.5312 160.486C80.9312 164.486 79.0312 168.086 76.7312 171.886C72.6312 178.886 68.5312 184.686 62.1312 189.686H62.0312V189.886ZM128.231 178.986C140.431 179.186 152.731 171.286 156.031 159.286C159.631 147.786 156.531 135.286 154.731 123.586C152.831 112.086 148.531 99.5861 137.931 93.4861C132.631 90.4861 124.931 88.5861 120.131 93.4861C118.631 94.8861 117.431 96.7861 116.431 98.6861C113.531 104.586 111.231 109.986 109.231 116.086C105.331 128.886 103.731 143.286 106.831 156.486C109.131 166.986 116.131 178.686 127.931 179.086H128.131L128.231 178.986ZM54.3312 186.186C64.4312 177.386 71.6312 164.886 73.9312 151.686C75.6312 138.986 73.1312 126.186 67.6312 114.886C64.6312 108.886 58.9312 104.286 52.1312 103.586C44.1312 102.386 41.4312 105.286 37.8312 111.886C31.4312 122.586 27.8312 134.686 26.4312 147.086C25.6312 156.086 23.6312 165.186 25.0312 174.186C27.8312 192.086 39.3312 198.086 54.2312 186.386H54.4312L54.3312 186.186Z" fill="white"/>
<path d="M326.25 135.131C326.146 135.184 323.863 135.472 323.525 135.502L321.227 135.699C320.719 135.744 319.864 135.699 319.334 135.631L316.027 135.237C315.799 135.01 315.32 134.806 315.107 134.64C313.295 133.187 312.087 131.62 311.601 129.222C311.505 128.737 311.203 128.087 311.159 127.686C311.041 126.535 311.063 125.075 311.041 123.819C311.034 123.372 311.292 122.676 311.432 122.222C311.896 120.739 311.233 121.17 312.33 118.635C312.256 118.545 311.969 118.28 312.043 118.234L312.536 117.909C312.455 117.796 312.271 117.523 312.22 117.364C312.168 117.205 312.566 116.925 312.669 116.744C313.685 114.875 312.86 114.693 314.26 112.998L314.289 112.317C315.129 111.182 315.924 110.092 316.557 108.867C316.557 106.566 317.014 106.649 316.97 104.886C318.693 103.797 317.765 103.327 319.68 103.282C320.542 103.259 321.543 102.979 322.324 103.055L324.607 103.29L327.266 103.555C328.599 103.683 327.236 102.964 329.932 104.568C331.162 106.369 331.037 108.496 332.208 110.168C332.76 110.955 333.327 111.78 333.784 112.529C333.732 112.998 333.791 113.445 333.865 113.876C334.027 114.837 334.24 117.069 334.248 117.97C334.248 118.598 333.57 119.264 333.953 119.922L333.592 120.754C333.916 122.797 333.18 123.872 333.283 124.893C333.379 125.801 333.055 126.475 332.694 127.201C332.524 127.534 332.436 128.193 332.34 128.639C332.259 129.025 331.994 129.441 331.854 129.751C331.42 130.758 331.044 131.575 330.249 132.354C329.844 132.755 329.475 133.595 328.938 133.853L326.257 135.154L326.25 135.131Z" fill="white"/>
<path d="M260.153 136.058L258.531 135.536L255.657 134.545C254.521 134.152 253.607 133.025 252.819 132.14L252.929 131.648C252.922 131.693 251.241 129.946 251.153 128.766L251.042 127.14L250.902 124.961C250.792 123.222 251.425 121.527 251.602 119.81L251.809 117.889C251.89 117.14 251.934 116.459 252.354 115.862L253.025 113.116C253.121 112.715 253.18 112.216 253.364 111.83L254.02 110.476C254.256 109.992 254.492 109.531 254.757 109.062L255.598 107.579C256.106 106.679 257.315 104.879 258.296 104.372L260.595 103.185C260.927 103.011 261.583 102.776 261.952 102.632L267.112 102.3C268.431 102.859 269.596 103.51 270.768 104.372C271.092 105.681 271.476 106.944 271.52 108.26C271.616 111.089 271.874 111.429 271.992 113.638C272.095 115.499 272.375 116.785 272.146 118.048L272.611 119.462C272.235 120.241 272.058 122.821 271.999 123.713L271.851 125.907L271.372 129.159C271.114 130.899 270.444 132.397 269.441 133.743C268.748 134.681 267.937 135.014 266.883 135.377C266.382 135.551 266.072 135.687 265.475 135.634C263.345 135.46 263.861 136.111 262.726 136.088L260.146 136.035L260.153 136.058Z" fill="white"/>
<path d="M392.885 87.5228C393.033 87.7886 393.171 88.2702 393.052 88.5735C392.85 89.0962 392.96 89.6261 392.878 90.0739C392.771 90.6554 392.522 91.1764 392.511 91.7758C392.508 91.9471 392.476 92.2557 392.365 92.2825L391.782 92.4198L392.41 92.7427C391.974 93.2173 391.935 93.6811 392.028 94.2359C392.073 94.5053 391.733 95.069 391.658 95.3384L391.227 96.8869C391.045 97.5399 390.557 97.9341 390 98.3801C389.443 98.8261 388.923 99.9768 388.209 100.228L386.354 100.885C385.284 101.263 383.987 101.193 382.86 101.152L382.082 100.78C381.418 100.799 380.623 100.623 380.232 100.046C379.89 99.5415 379.198 98.9046 379.097 98.3873L378.86 97.1688C378.746 96.5801 378.986 95.6685 379.099 95.0209L379.783 91.1246C379.931 90.2844 380.068 89.4976 380.335 88.7466C380.286 88.256 380.205 87.4639 380.284 87.0143L380.481 85.8904C379.619 84.0458 380.696 83.177 380.513 82.9343L380.176 82.4883L380.312 80.3172L380.319 79.2058C380.324 78.2496 380.525 77.4218 380.148 76.4923C379.863 75.793 379.951 74.8136 379.787 74.125C379.678 73.6665 379.584 73.1848 379.495 72.6978L378.841 69.1262L378.294 66.0756C378.057 64.7519 378.411 64.1792 378.219 64.1418L377.759 64.049L377.34 62.6397C377.2 62.174 377.38 61.2499 377.204 60.7736C376.951 60.0868 376.86 59.6426 376.842 58.8647C376.828 58.2314 376.633 57.4661 376.525 56.7864L376.211 54.8293C375.874 52.7296 375.61 53.4146 375.17 51.7555C375.013 51.1615 374.633 50.4033 374.378 49.7896L374.01 48.8994C373.827 48.4569 372.753 46.9798 372.579 46.2483C372.361 45.3349 371.802 44.6267 371.394 43.774C371.27 43.5171 371.257 43.0389 370.999 42.7928C370.559 42.3717 370.35 41.9364 370.161 41.4708L369.579 40.0329L368.572 38.8947C368.727 38.4077 368.142 38.133 367.908 37.8832C367.818 37.7869 367.872 37.3926 367.809 37.2695C367.746 37.1464 367.385 36.9859 367.304 36.8467C365.926 34.4276 365.762 35.6711 365.235 34.9967C365.149 34.8879 365.242 34.59 365.311 34.3045C364.217 34.0066 363.585 33.1663 362.889 32.294L361.721 30.8275C361.343 30.3512 360.538 30.2085 360.449 29.4449C360.084 29.2326 359.596 28.9383 359.224 28.7688L357.896 28.164C356.849 27.6877 355.89 27.19 354.897 26.5549C354.365 26.2141 353.599 26.1428 353.108 25.8984C349.215 23.952 347.768 24.6014 344.206 23.5613C343.773 23.4347 343.41 23.0315 342.841 23.2063C342.101 23.4347 341.485 23.333 340.684 23.2634C339.965 23.2028 338.869 23.4365 338.193 23.4436C338.017 23.4454 337.602 23.267 337.448 23.3044L336.438 23.5524L334.928 23.804C334.352 23.9003 333.659 24.2089 332.898 24.3695L330.954 24.7834C330.249 24.9332 330.109 25.6771 330.008 25.1134C329.996 25.0492 329.994 24.9118 329.959 24.9475L329.649 25.2686C328.998 25.943 327.875 26.0161 327.071 26.4318L322.235 28.9258C321.866 29.1167 321.453 29.3397 321.081 29.5609L320.31 30.0176C320.086 30.1496 319.763 30.6152 319.502 30.749C318.453 31.2914 317.54 31.8587 316.498 32.3082C315.926 32.5544 315.24 32.8595 314.84 33.2216C314.788 33.2698 314.517 33.4411 314.487 33.4C314.444 33.3394 314.585 33.5196 314.685 33.6462L312.142 35.1751C311.636 35.4784 311.177 35.8441 310.681 36.192L308.939 37.4105C308.053 38.0313 307 38.5326 306.162 39.2105C305.581 39.6797 305.117 40.0454 304.525 40.4343C304.009 40.7751 303.473 41.362 302.88 41.5672C302.155 41.8187 301.695 42.1398 301.15 42.6411C300.75 43.0104 300.183 43.2869 299.754 43.5849C299.288 43.9095 298.895 44.2824 298.37 44.5214L296.584 45.3278L293.778 46.9156L292.982 47.4508C292.097 47.6898 289.233 49.5737 288.659 49.7682L285.739 50.7583C284.757 51.0919 283.76 51.8804 282.802 52.041L280.868 52.3639L279.25 52.7225C276.891 53.2452 277.716 53.3361 275.582 53.5395L274.076 53.684L271.678 53.8999C270.491 54.0069 269.477 53.866 268.269 53.7179C267.4 53.6127 266.091 53.7982 265.323 53.2826C264.974 53.0489 264.15 52.9633 263.796 52.9383C262.403 52.8366 264.744 53.6466 262.412 52.4673C261.957 52.2372 261.292 51.9232 260.817 52.0463C260.653 52.0891 260.292 51.7662 260.129 51.7074C258.232 51.0009 258.84 51.4041 258 50.3854C257.899 50.2623 257.443 50.4657 257.314 50.3729L255.955 49.4007C254.689 48.4962 253.777 47.3259 252.48 46.4482L251.588 45.8434L249.897 44.2217C249.848 44.1753 250.021 43.774 249.954 43.7811L249.567 43.815L248.296 41.874C248.158 41.6635 247.713 41.3549 247.523 41.2175C247.345 40.7697 247.066 40.2399 246.75 39.8938L246.78 38.9447C246.787 38.7395 246.303 38.6878 246.183 38.5254C245.452 37.5443 245.352 37.2285 244.958 36.2687C244.797 35.8762 244.09 35.2768 243.977 34.8665C243.947 34.7594 244.151 34.4241 244.205 34.3277C244.26 34.2314 243.712 34.1636 243.65 34.0708C243.39 33.6659 243.078 32.7899 242.804 32.2619L242.481 31.6339L242.781 31.6963C243.774 31.9033 242.012 31.2664 242.338 30.3316C241.863 28.4138 240.251 27.0383 239.97 24.8208L239.069 23.2456C238.945 22.5498 238.683 21.9789 238.484 21.4188L238.027 20.1361L236.874 17.139L236.347 15.6565C235.764 14.6396 234.427 11.3963 234.488 10.3491C233.921 9.55344 233.505 8.78454 233.448 7.70344C233.465 8.03526 232.437 5.57692 233.687 3.86786L234.537 2.7047C234.781 2.36931 235.38 1.92331 235.696 1.68426C235.874 1.82519 236.027 1.99645 236.093 1.94115L236.453 1.63787C236.924 1.23826 237.839 1.37563 238.439 1.20258C239.628 0.860052 240.687 0.745876 241.825 1.45412L243.497 2.4924C243.595 2.55306 243.905 2.63691 243.94 2.56733L244.155 2.15345L244.481 3.21314C244.499 3.27022 244.39 3.47181 244.38 3.53247C244.385 3.50036 244.774 3.89997 245.137 4.65995C246.068 6.6045 245.771 6.62234 246.481 7.96212L247.069 9.07176L247.923 10.6667L248.307 11.8405C248.459 12.3026 248.816 12.5024 249.298 12.7468L249.317 14.5896C249.604 14.8911 249.869 15.2747 249.822 15.6886C249.71 16.6466 250.227 17.2192 250.534 17.9917C250.721 18.4609 250.837 18.9354 251.246 19.2619L251.157 19.7472C251.092 20.1004 251.913 20.1057 251.932 21.1262C252.614 21.7452 252.115 21.5954 252.591 22.7407C253.696 25.3935 253.16 23.2295 253.949 25.9109C254.817 28.8634 255.972 28.908 256.248 30.5082C256.846 31.1183 257.743 32.5259 258.058 33.3162C258.283 33.8835 259.792 36.151 260.517 36.5684C260.422 36.7736 260.304 37.0073 260.426 37.0769C260.583 37.1643 261.042 37.2784 261.136 37.3837L262.407 38.8287C262.459 38.8894 262.883 38.8626 262.906 38.9411L263.019 39.3443C264.815 40.2434 264.74 41.1372 266.143 41.5779C268.226 42.2308 267.032 42.7339 269.016 42.9926L270.201 43.1478L272.074 43.3101C273.144 43.4029 273.486 43.7347 274.905 43.7615C275.048 43.5652 275.346 43.3797 275.519 43.435C276.449 43.7329 277.196 43.2477 278.099 43.1246L279.907 42.8766L282.095 42.0185C282.399 41.899 282.879 41.5118 283.277 41.5011C284.369 41.4708 285.116 41.0444 286.015 40.5645L289.773 38.5522C290.738 38.0349 291.291 37.3337 292.624 37.2642L292.055 37.0358C293.893 36.4935 294.534 34.986 295.49 35.0021C297.071 33.4357 298.173 34.1083 299.042 32.6722C301.073 31.352 300.026 32.5134 301.483 31.2593L302.834 30.0979L305.244 28.6368C306.632 27.7947 307.41 27.1882 308.505 26.166C308.616 26.0625 308.925 26.1749 309.107 26.2159V25.7075C309.11 25.4631 309.527 25.7842 310.456 25.2543L311.91 24.4266C312.311 24.1982 312.768 23.9877 313.149 23.7255L315.308 22.2305C315.711 21.9522 316.278 21.9147 316.72 21.6346L318.638 20.4108C319.271 20.0076 319.859 19.8613 320.418 19.3921L321.809 19.1406C322.589 18.4306 323.524 18.0631 324.552 17.8401L325.339 17.428L327.54 16.5217L329.305 15.8777C329.619 15.7635 330.366 15.7742 330.638 15.5833C330.985 15.3389 331.462 14.793 331.783 14.843C332.218 14.9108 332.736 14.9429 333.048 14.6521C333.451 14.2757 333.949 14.4969 334.317 14.4184C336.876 13.8689 337.103 14.1312 339.7 13.3248C339.71 13.1286 339.72 13.2784 339.733 13.6566C339.947 13.7547 340.53 13.653 340.942 13.5924L342.305 13.3962C343.569 13.7137 344.091 13.0322 345.25 13.6138C345.785 13.8832 346.295 13.678 346.777 13.3676L347.246 13.7744C347.349 13.8636 347.616 13.6994 347.764 13.6602C350.061 14.3952 349.658 13.4978 351.815 14.3774C352.178 14.5254 352.548 14.5843 352.903 14.6325L355.433 14.9768C357.02 15.1926 357.089 16.0061 358.826 16.1114L358.822 16.4753C358.819 16.9677 359.234 16.3094 360.47 16.8732C362.615 17.8508 362.062 17.5636 364.02 18.7695C364.135 18.8409 364.589 18.7874 364.617 18.9533C364.709 19.5045 365.517 19.4849 365.847 19.6455C366.329 19.8792 367.025 20.5286 367.566 20.9246C368.278 21.4473 369.125 21.8326 369.729 22.4339C370.296 22.9976 370.72 23.7219 371.388 24.1215C372.664 24.8868 373.565 25.7878 374.484 26.8778L375.404 27.966C376.031 28.7081 376.526 29.4806 377.095 30.353C377.348 30.7401 378.246 31.1647 378.329 31.6054C378.532 32.6668 379.376 33.8193 380.014 34.59C381.415 36.2865 379.961 35.143 381.329 36.9859C381.663 37.4336 381.689 38.1401 382.37 38.5451C382.649 38.711 382.715 39.3282 382.837 39.5976L383.445 40.9321C383.789 41.6885 384.422 42.6268 384.757 43.2548C384.912 43.5438 385.019 44.1914 385.129 44.4911L385.841 46.4196C385.878 46.5177 386.188 46.7425 386.127 46.8139L385.817 47.1778C386.647 47.5239 386.33 47.9307 386.883 49.5398L387.44 51.1561C387.684 51.6324 387.843 51.9161 387.871 52.3353L387.993 54.0979C388.66 54.5742 388.813 55.4074 388.64 56.1334C388.728 56.2815 388.97 56.6526 388.972 56.8399C389.007 59.9226 390.953 60.7611 389.852 61.8101C389.827 61.7584 389.881 61.8743 389.923 61.9671C390.075 61.9475 390.459 61.9154 390.468 62.0509L390.508 62.6664L390.593 64.0026C390.6 64.1025 390.506 64.4718 390.597 64.4879L391.113 64.5753C390.391 65.3103 391.082 66.0399 391.098 66.6215L391.147 68.4394C391.164 69.1209 391.408 69.8666 391.693 70.45C391.831 70.7318 391.558 71.3134 391.995 71.6256L391.923 72.8655L392.024 73.613C392.115 74.2855 391.988 75.0295 392.258 75.7359C392.492 76.3425 392.503 76.999 392.468 77.5949C392.522 77.8981 392.89 78.4975 392.812 78.7848C392.34 80.4724 393.253 79.5715 392.932 81.0825C392.908 81.1967 393.073 81.5678 393.012 81.657C392.12 82.9433 393.925 83.4035 393.028 84.308L393.038 85.9743C392.885 86.1741 392.756 86.3418 392.831 86.2454C393.075 86.3614 393.218 86.422 393.216 86.4363C393.216 86.4559 393.161 86.6165 393.136 86.695L392.887 87.5228H392.885Z" fill="white"/>
<path d="M335.648 243.699L334.88 244.892C333.428 247.099 334.4 245.713 333.023 247.087L330.809 249.298L328.982 251.176C328.188 251.991 327.516 253.2 326.31 253.534C324.626 254.003 325.821 254.389 324.254 255.261L323.193 255.852C322.746 256.101 322.564 256.258 321.953 256.24C321.573 256.231 321.191 257.041 321.077 257.363C320.877 257.189 320.735 257.029 320.671 257.118C320.245 257.712 319.967 257.887 319.042 258.387L317.789 259.065C315.976 259.154 314.866 260.32 313.41 260.801C311.141 260.973 313.167 261.248 309.406 261.872C308.93 261.953 308.486 262.033 308.13 262.41C307.628 262.942 307.086 262.739 306.626 262.885L304.351 263.608C303.933 263.742 303.161 263.629 302.692 263.861C302.096 264.153 300.267 264.313 299.709 264.329L299.597 264.639C299.58 264.687 299.372 264.502 299.313 264.493C296.227 264.049 297.332 264.624 296.18 264.582C295.64 264.562 295.214 264.543 294.675 264.448C292.383 264.048 292.762 265.561 290.572 264.085C289.827 264.838 287.078 264.352 286.072 264.192L284.758 263.984L283.676 263.658L281.669 263.284C281.381 263.231 281.068 263.106 280.726 263.028L279.531 262.748L277.555 262.102L275.192 261.319C274.612 261.127 273.268 260.331 272.673 260.523C272.659 260.539 272.818 260.228 272.739 260.19L272.188 259.936C271.739 259.729 270.894 259.631 270.504 259.387L268.545 258.172L266.568 257.057C266.379 256.95 266.133 256.493 266.023 256.295C265.37 256.37 264.903 255.79 264.664 255.211C262.709 254.804 264.166 253.939 262.993 254.35L262.826 253.914C262.782 253.8 262.386 253.773 262.283 253.711C259.972 252.281 262.035 253.21 260.12 252.03C259.319 251.537 258.57 250.606 257.785 249.987C257.34 249.638 256.361 248.894 256.349 248.39C254.483 247.26 256.008 246.863 254.277 246.193C253.849 246.028 253.692 245.378 253.467 245.136C253.123 244.768 252.727 244.264 252.462 243.926L251.38 242.548C250.208 241.058 249.505 239.084 249.456 239.021L248.519 237.822C248.294 237.533 247.992 237.389 247.978 236.951C247.964 236.536 247.568 236.228 247.498 235.979L247.067 234.432C247.03 234.302 247.063 233.987 247.041 233.868C247.013 233.726 245.62 233.352 245.58 230.931C245.541 230.897 245.353 230.726 245.355 230.73C245.356 230.735 245.442 230.578 245.519 230.445C244.588 229.886 244.375 228.779 244 227.832L243.674 227.013C243.428 226.393 243.442 225.751 243.496 225.129L243.668 223.193C243.691 222.942 243.867 222.582 243.979 222.267C244.861 219.8 245.388 221.265 244.735 220.231L245.725 220.008L247.245 219.551C247.964 219.334 248.599 219.189 249.31 219.139C251.357 218.995 252.84 218.458 254.699 219.624L255.553 220.523C255.959 220.952 256.315 221.329 256.548 221.867L257.19 223.358L258.529 226.333C258.326 227.184 258.513 227.615 258.897 228.275C259.155 228.716 259.358 229.282 259.544 229.733L260.145 231.169C260.443 231.885 261.143 233.74 261.489 234.044C262.045 234.532 262.107 235.436 262.389 235.853C263.217 237.069 265.048 239.945 266.016 240.844L266.931 241.693C267.14 241.887 267.383 242.243 267.557 242.405L268.594 243.359C269.025 243.756 269.448 244.018 269.839 244.399L270.833 245.373C271.289 245.82 271.755 246.149 272.298 246.535C272.966 247.014 273.502 247.879 274.233 248.128C275.323 248.499 276.096 249.535 276.893 250.161C277.18 250.385 277.886 250.553 278.167 250.811L279.295 251.297L281.372 252.272C283.377 253.214 283.96 252.883 284.943 253.337C285.543 253.615 285.858 253.737 286.409 253.825L288.085 254.088C290.793 254.515 287.416 254.457 291.511 254.549L293.883 254.603L296.33 254.458C296.907 254.425 297.527 254.364 298.103 254.275L299.512 254.061L301.419 253.752C303.597 253.397 303.622 253.104 305.409 252.723C305.957 252.605 306.535 252.379 307.076 252.16L308.575 251.555C309.663 251.115 310.462 250.421 311.446 249.818C312.872 248.945 314.394 248.296 315.71 247.176C316.37 246.615 316.993 246.151 317.772 245.674C318.489 245.213 319.243 244.273 319.913 243.546L321.03 242.338L322.554 240.672C322.896 240.298 323.229 239.833 323.564 239.418C324.249 238.573 325.755 237.239 325.545 237.503C326.399 236.419 327.249 235.137 327.951 233.962C328.193 233.558 328.361 233.158 328.63 232.836C328.951 232.451 329.333 232.038 329.581 231.666L330.56 230.197L331.75 228.414L331.522 227.949C331.473 227.848 331.851 227.677 332.023 227.586C331.939 226.671 332.331 225.738 332.9 225.076C332.843 225.008 332.803 224.747 332.871 224.67L334.791 222.504L335.782 221.783L336.721 221.101C337.903 219.704 338.13 220.87 339.205 219.796L339.437 219.981C339.489 220.024 339.709 219.757 339.775 219.743C341.674 219.342 343.275 220.119 344.423 220.199C344.511 220.204 344.427 220.346 344.336 220.617C345.197 221.715 345.781 221.801 346.6 222.844C346.71 223.419 346.924 223.878 347.12 224.165C347.038 224.556 347.02 225.149 347.129 225.655L347.394 226.897C347.464 227.226 347.413 227.901 347.384 228.278C347.359 228.583 346.773 228.944 346.492 229.172C346.637 229.87 346.129 230.247 345.64 230.765L344.783 231.675L343.872 232.69C342.695 233.998 343.415 234.099 342.353 235.228C341.615 236.013 340.95 236.818 340.535 237.806C340.248 238.489 339.725 238.875 339.294 239.406L338.241 240.698C337.974 241.026 337.976 241.718 337.384 241.957C336.515 242.309 337.161 243.642 335.655 243.699H335.648Z" fill="white"/>
<path d="M306.261 203.053C306.648 207.2 305.025 205.903 303.929 208.517C302.735 208.904 301.78 209.903 300.64 210.028L297.554 210.368C297.131 210.415 296.669 210.334 296.201 210.536L295.08 210.074C294.827 210.242 294.532 210.571 294.305 210.502C294.056 210.427 293.556 210.042 293.305 209.99C292.767 209.88 291.879 209.962 291.404 209.321C290.86 209.342 290.151 209.468 289.533 209.615C288.897 208.603 287.73 208.44 286.798 208.002L284.523 206.935C283.052 206.244 283.043 206.026 281.931 204.895L281.536 205.173C281.47 205.221 281.381 204.984 281.344 204.909C281.308 204.834 281.383 204.727 281.514 204.501C281.002 204.36 280.559 203.851 280.493 203.236C280.281 203.224 279.828 203.225 279.745 203.042C279.646 202.817 279.524 202.335 279.485 202.14L278.937 201.864C278.738 201.765 278.815 201.362 279.03 201.202C277.515 200.726 277.843 199.393 277.008 198.292C276.111 197.107 276.574 197.645 276.041 195.432C275.896 194.829 275.553 194.292 275.031 193.941C275.21 192.892 274.922 191.91 274.549 190.923C274.209 190.023 274.474 188.757 274.36 187.814C274.339 187.634 274.034 187.269 274.107 187.137L274.408 186.597C274.254 185.744 274.558 185.73 274.467 184.22C274.416 183.383 274.072 182.542 274.421 181.746C274.771 180.949 274.825 180.119 274.678 179.237C274.587 178.696 275.217 177.842 275.43 177.318L275.926 176.094C275.322 174.806 276.474 174.569 276.16 174.184L275.78 173.716C276.651 173.251 276.797 172.445 276.513 171.558C276.799 171.036 277.253 170.281 277.288 169.748L277.384 168.257L278.054 167.859C278.204 167.77 277.871 167.165 277.925 166.992L278.422 165.37C278.918 165.233 279.534 163.045 279.669 162.413C279.868 161.478 280.236 160.483 280.59 159.489L280.835 158.803L281.543 156.81C281.762 156.195 282.439 155.489 282.622 154.925L283.874 151.053C283.759 151.411 284.568 148.794 284.366 149.362L285.031 147.488L285.422 146.228C285.637 145.535 285.771 144.958 285.949 144.281L286.661 141.569C288.506 140.958 286.707 140.776 288.487 139.127C288.815 138.824 289.105 138.578 289.531 138.334C291.844 137.008 289.835 137.879 292.935 137.261C293.26 137.197 294 137.169 294.31 137.265L296.468 137.931C296.618 137.977 297.077 137.767 297.17 137.87C297.484 138.221 297.768 138.822 297.849 138.731L298.147 138.398C298.095 138.825 298.097 139.283 298.383 139.522C298.992 140.028 298.561 140.639 298.697 141.004C298.884 141.509 299.132 142.228 299.036 142.806L298.687 144.929C298.627 145.286 298.385 145.929 298.221 146.335C297.236 148.772 296.821 147.826 296.349 149.633L296.121 150.508C296.025 150.877 295.508 151.44 295.318 151.732C295.295 152.079 295.229 152.569 295.072 152.883L294.555 153.918C294.471 154.087 294.857 154.622 294.707 154.727L294.054 155.179L294.061 155.582C294.063 155.691 293.686 155.858 293.635 155.969L292.94 157.488C293.342 158.385 293.005 159.087 292.232 159.382L292.518 159.749C292.567 159.812 292.328 159.954 292.216 160.034C292.202 161.848 290.914 161.789 291.209 163.249C290.517 163.626 290.617 164.501 290.42 164.959L289.617 166.823C289.397 167.336 289.21 168.098 288.988 168.501C288.719 168.991 288.555 169.157 288.592 169.793C288.658 170.96 288.089 172.094 287.834 173.219C287.496 174.706 287.84 174.432 287.512 175.435L287.072 176.773C286.902 177.29 287.169 178.072 286.429 178.296L286.738 178.826C286.815 178.957 286.586 179.191 286.396 179.476C286.206 179.761 286.429 180.409 286.492 180.858C286.714 182.444 286.131 182.474 286.459 185.122L286.658 186.724C286.724 187.265 286.735 187.967 286.726 188.438C287.688 189.312 287.417 190.708 287.59 190.786L288.171 191.05L287.946 191.303C287.955 191.294 289.028 193.309 289.4 193.809L290.163 194.836C290.587 195.406 291.411 195.8 291.727 196.509L292.952 197.211C293.289 197.193 294.043 197.043 294.326 196.87L295.424 196.199C296.028 195.828 296.718 195.167 297.379 195.053C299.671 194.657 300.036 194.757 301.904 195.819C303.192 196.551 304.166 197.888 304.651 199.227C305.273 200.947 305.14 199.252 305.491 200.776C305.564 200.893 305.936 201.111 305.939 201.255L305.952 201.834C306.166 201.955 306.584 202.103 306.585 202.283C306.587 202.463 306.399 202.807 306.275 203.047L306.261 203.053Z" fill="white"/>
<path d="M360.894 100.825L360.325 101.186C359.652 100.488 358.996 99.8105 358.926 98.9355C358.752 96.7559 358.411 98.6735 358.968 95.9807C358.741 95.3231 358.846 94.9061 359.198 94.3804L359.231 92.4824C359.409 92.4379 359.535 92.4539 359.538 92.3684C359.603 90.5649 359.013 89.0518 358.858 86.564C358.841 86.2806 358.79 85.6925 358.713 85.4395L358.083 83.3651L357.665 82.1016C357.347 81.1428 356.824 80.1502 356.602 79.2038C356.133 77.2043 356.622 78.8439 355.671 76.7552C355.582 75.8356 355.395 74.7592 354.624 74.1747C353.951 73.6632 353.621 72.6831 353.204 71.9168L352.443 70.5196C352.229 70.1257 352.023 69.5056 351.911 69.1153L349.647 66.6969C349.526 66.5686 349.216 66.369 349.251 66.2354L349.436 65.5457L348.699 65.5956C348.56 65.6045 347.599 64.2002 347.023 63.6549L345.32 62.042C344.982 61.7213 344.183 61.3541 343.768 61.1403L342.482 60.4791L340.524 59.474L339.65 59.0552C338.314 58.4172 338.375 58.8592 337.54 58.0982L336.423 57.9931L333.925 57.6669C333.182 57.5707 332.576 57.3515 331.79 56.8436L331.706 57.3729C331.627 57.8719 329.965 56.8329 329.342 57.159C328.566 57.5636 327.812 57.3658 327.004 57.3854L325.532 57.4246C324.822 57.4424 323.871 57.8505 323.093 57.6669L322.554 58.2265C322.425 58.3602 321.898 58.1677 321.734 58.2354L320.246 58.8485C319.258 59.2566 318.098 60.4987 317.634 59.85L316.191 60.6057L314.866 61.331L313.182 62.3183C312.612 62.6533 312.121 63.1024 311.441 63.2877L310.886 64.0059L309.59 64.7669C309.703 65.0075 309.815 65.2035 309.717 65.2516C309.587 65.3176 309.279 65.3176 309.006 65.2784L307.587 66.9446C307.017 67.6165 306.139 68.0781 305.503 68.6947C305.054 69.1295 304.653 69.5982 304.201 69.8851C304.156 69.9992 304.063 70.3752 303.934 70.4002L303.275 70.5285C303.043 70.9152 302.668 71.5229 302.296 71.8134L300.302 73.3763C299.925 73.6704 299.538 74.0036 299.29 74.4064C298.707 75.3509 297.949 75.8659 297.127 76.5164C296.743 76.8194 296.349 77.4698 295.887 77.7585C295.567 77.9581 295.197 78.2041 294.953 78.4197C292.699 80.4175 294.289 79.4961 292.354 80.4727C290.353 81.4814 290.36 82.1693 288.975 82.474C287.281 82.8465 287.828 84.0548 285.885 83.2992L284.746 84.1956C283.045 84.3969 281.515 85.5714 280.231 85.3771C278.598 85.1312 278.922 85.6908 277.258 85.803L275.863 85.8957L274.968 85.803C275.126 85.9866 275.287 86.1363 275.214 86.1612C275.072 86.2111 274.821 86.261 274.723 86.2076C274.634 86.1577 274.46 85.9973 274.381 86.0187C274.277 86.0472 274.012 86.4125 273.916 86.3715L273.035 86.0062C272.82 85.9171 272.344 86.327 272.122 86.3983C271.981 86.4446 271.648 86.0294 271.517 86.1024C271.386 86.1755 271.217 86.3466 271.006 86.564C270.826 86.7493 270.268 86.3965 270.004 86.3983L268.349 86.4036C267.501 86.4054 266.711 86.0917 265.995 85.9973L264.532 85.8048C263.433 85.9474 264.303 85.1971 262.04 84.9619L260.835 84.8371C260.355 84.7872 259.924 84.5359 259.483 84.3684C258.64 84.0476 257.621 83.5683 256.84 83.0728C256.632 82.941 256.083 82.8697 255.861 82.7948L254.635 82.3796C254.534 82.3457 254.186 82.1443 254.207 82.0445L254.307 81.5527C253.377 82.0802 250.303 79.3019 249.94 79.0702L248.443 78.1203L246.913 76.7873L245.495 75.4935C245.34 75.3509 245.164 75.0978 245.007 74.8252L244.726 74.8626C244.651 74.8733 244.663 74.6078 244.651 74.5721C244.434 74.6309 244.12 74.7788 244.03 74.6808L243.641 74.2602C243.033 73.6044 242.514 72.9058 241.781 72.4336L240.15 71.3821L237.563 68.7161C237.421 68.5717 236.99 68.5682 236.9 68.4006C236.765 68.1547 236.608 67.8268 236.521 67.629C235.985 67.6539 235.239 66.1053 234.464 65.6348L233.622 65.1233C233.098 64.8061 232.84 64.3927 232.496 63.8598L231.3 63.2075C230.954 62.6177 230.588 62.3076 230.171 61.8157L229.215 60.6858L228.022 59.5399C227.608 59.1425 227.287 58.533 226.949 58.141C226.437 57.5511 225.715 57.0806 225.295 56.2822C225.071 55.8581 224.468 55.6621 224.156 55.2896L222.976 53.8835C223.46 54.4591 221.097 52.1299 221.567 52.1459L220.968 52.1245C220.825 52.1192 220.476 52.0497 220.354 51.9748C220.232 51.9 220.293 51.5614 220.29 51.3743C218.814 50.5491 219.271 49.6937 219.105 49.6759L218.577 49.6189L217.647 48.7403C216.98 48.1112 216.471 47.2415 215.714 46.6588C215.323 46.3576 214.775 45.937 214.747 45.5663C214.742 45.5022 214.869 45.1957 214.824 45.242C214.779 45.2883 214.381 45.3079 214.348 45.2545C213.929 44.5808 212.837 43.5757 212.23 42.9751C211.623 42.3746 211.385 42.4405 210.599 42.1589C206.363 40.6424 206.79 39.696 205.279 39.1026C204.592 38.8335 204.833 37.6591 204.856 37.0763C204.679 36.8553 204.508 36.5809 204.48 36.31C204.437 35.8859 204.706 35.697 205.072 35.4546L205.484 34.2695C205.517 34.175 205.915 33.9042 205.867 33.8151L205.709 33.5121L207.481 32.049C207.521 31.7763 207.492 31.452 207.643 31.4555L208.449 31.4769C209.138 30.8532 210.578 30.4183 211.719 30.7534C212.101 30.8656 212.809 30.7462 213.308 30.8068L215.401 31.0652C215.773 31.1116 216.091 31.2844 216.425 31.386L217.828 31.8102C218.597 32.0436 220.082 33.3107 220.785 33.9505L222.779 35.7629C222.926 35.8966 223.196 36.1871 223.322 36.3225L224.7 37.8141L226.19 39.3753L228.121 41.3873C228.18 41.4479 228.201 41.8043 228.269 41.8221L228.674 41.9308C228.878 42.3567 229.388 42.8718 229.801 43.1035L230.276 44.162C230.312 44.244 230.776 44.1032 230.797 44.1923L230.911 44.6468C231.542 44.9907 232.048 45.6964 232.864 46.575L233.885 47.6746L235.103 48.9256C235.664 49.503 236.572 49.8042 236.968 50.6115L236.258 50.3246C236.523 51.4081 237.173 50.9056 238.218 52.3348C238.864 53.217 239.398 54.1544 240.417 54.5482C241.948 55.1399 240.752 56.1575 242.986 57.0913L243.449 58.2283C244.253 58.2889 244.556 58.8093 244.733 59.3796C245.155 59.6059 245.935 60.0122 246.24 60.3544C247.154 61.3773 248.093 62.124 249.094 62.9598C249.851 63.5925 250.629 64.2608 251.467 64.7829L251.522 65.3194C251.585 65.9217 252.355 65.1447 253.03 66.4706C253.499 67.392 254.589 67.7448 255.34 68.3632L257.084 69.8014C257.44 70.0954 257.655 70.4928 258.045 70.4911C258.886 70.4857 259.458 71.5906 260.195 71.9132L262.733 73.0288C263.242 73.2533 263.569 73.4743 263.685 73.9911L264.059 73.5207C264.136 73.4244 264.418 73.7185 264.539 73.788L265.341 74.2478C266.121 74.6951 266.93 75.039 267.94 75.1887L269.043 75.3545C269.648 75.7038 270.226 75.8196 271.002 75.7162C273.068 75.44 274.148 76.4059 278.568 75.3741C278.739 75.3349 279.196 75.5273 279.296 75.4062L279.783 74.8198C280.735 75.0301 282.181 74.8145 282.752 73.9074L283.247 74.0143C283.413 74.05 283.69 73.7559 283.851 73.7024L284.657 73.4298C284.76 73.3941 285.007 73.3674 285.114 73.3496C285.248 73.3264 285.318 72.8399 285.454 72.8381L286.12 72.8292C286.3 72.8274 286.482 72.4211 286.604 72.1841C286.717 71.9631 287.326 71.849 287.544 71.6887L289.746 70.0741C290.587 69.4574 291.719 68.2545 292.328 67.4026C292.654 67.2886 293.155 67.0712 293.406 66.7344C293.901 66.0714 294.475 65.6615 295.065 65.1518C295.602 64.6867 296.07 64.1663 296.689 63.8402C297.122 63.6121 297.525 63.1434 297.973 62.8048C298.346 62.5232 298.622 62.1454 298.953 61.8228C299.524 61.2668 300.206 60.7215 300.86 60.2047L302.289 59.0784C302.708 58.7469 303.236 58.7576 303.606 58.182C304.109 57.4014 305.248 57.3604 306.029 56.9345L307.294 56.2466C307.893 55.4642 308.634 54.8708 309.592 54.4894L311.104 53.8853C311.741 53.6304 312.416 53.2205 313.053 52.9283L315.862 51.6345C316.286 51.4384 316.563 51.2513 317.004 50.9947C317.512 50.7006 318.69 50.5117 319.246 50.2765C319.389 50.2159 319.761 50.4119 319.862 50.3264L320.324 49.9308L320.436 50.248C320.445 50.2729 321.518 49.7989 322.242 49.5672C323.677 49.1074 325.103 48.6156 326.565 48.8098C326.657 48.5835 326.777 48.2146 326.903 48.2484L327.496 48.4106L328.06 48.5639C328.184 48.5977 328.353 48.2556 328.416 48.1789C328.85 48.7599 329.373 48.1825 329.804 48.1843L330.921 48.1896L332.367 48.2164L334.956 48.2395L337.255 48.2128C337.379 48.2128 337.59 48.7385 337.707 48.6922L338.37 48.4284L338.871 48.792C339.677 48.9346 340.687 48.9239 341.411 49.209C341.903 49.4015 342.206 49.7312 342.791 49.5868C343.448 49.4246 343.907 49.6706 344.397 50.1785L344.441 49.9201C344.453 49.8434 344.418 49.7543 344.465 49.7739C345.709 50.3032 345.214 49.6991 345.786 50.4957L347.761 51.0392L347.726 51.3564C347.717 51.4295 347.709 51.5275 347.749 51.5151L348.063 51.4117C348.569 51.246 349.019 51.3689 349.437 51.6648L350.69 52.5505C352.693 53.2918 352.098 53.4273 353.296 53.9441C353.385 53.9833 353.434 54.2987 353.488 54.4128C356.138 55.3181 355.119 56.17 355.491 56.2858L356.234 56.5157C356.466 56.8169 356.813 57.1252 357.11 57.4264L358.516 58.8645L359.244 59.3831C360.271 60.1156 361.126 61.2793 361.738 62.2951L362.94 64.2875C363.427 65.0948 363.84 66.688 364.695 67.2387C364.924 67.3866 365.006 68.0709 365.086 68.2937C365.718 69.0796 367.214 71.7831 367.6 72.7009L368.256 74.2656C369.071 76.2081 367.935 75.0123 369.599 76.814L369.339 77.5215C369.285 77.6712 369.636 77.91 369.699 78.0669C370.472 80.0218 370.006 79.2038 370.517 80.4246C371.351 82.4188 371.576 84.8942 371.701 85.1846C371.975 85.8191 372.127 86.2949 372.183 86.9293L372.307 88.3265C372.312 88.38 371.916 88.5243 371.961 88.5493C372.031 88.5849 372.295 88.7952 372.295 88.8736L372.27 90.8072C372.256 91.9246 372.097 92.903 372.134 93.8814C372.152 94.3608 371.574 95.1716 372.178 95.7366L371.696 96.0645C371.588 96.1375 371.913 96.4868 372.042 96.6633L371.445 97.5116C371.51 97.6096 371.768 97.8555 371.712 97.9589C371.644 98.089 371.419 98.3901 371.305 98.4828L369.484 99.9388L369.657 100.475C369.678 100.539 369.463 100.47 369.348 100.45C367.679 100.942 367.539 102.247 365.855 101.632L365.93 101.931C365.943 101.978 365.976 102.136 365.93 102.111C365.866 102.076 365.639 101.958 365.569 101.963L364.824 102.008C363.833 102.067 361.384 102.172 360.882 100.823L360.894 100.825Z" fill="white"/>
</g>
<defs>
<clipPath id="clip0_1_31">
<rect width="393.286" height="265" fill="white"/>
</clipPath>
</defs>
</svg>
